<svg id="Layer_1" enable-background="new 0 0 512 512" viewBox="0 0 512 512" xmlns="http://www.w3.org/2000/svg"><g><g clip-rule="evenodd" fill-rule="evenodd"><path d="m51.3 318.6c29.4 48.3 16.4 48.1 70.8 53-38.5 38.6-28.7 30.2-20.3 86-29.4-48.3-16.4-48.1-70.7-53 38.4-38.5 28.6-30.1 20.2-86z" fill="#c4c4b6"/><path d="m51.3 318.6c29.4 48.3 16.4 48.1 70.8 53-16.1 16.1-23.8 24-26.6 31.9-12-5.6-25.3-20.5-36.5-41.1-.6-8.9-4.3-21-7.7-43.8z" fill="#d8d8cf"/><path d="m111.7 317.4c-35.1 0-63.5-28.4-63.5-63.5 0-28 18.1-51.8 43.3-60.2-.7-3.6-1-7.4-1-11.2 0-35.1 28.4-63.5 63.5-63.5 27.9 0 51.7 18.1 60.2 43.2 7.3-3.7 15.6-5.8 24.4-5.8 23.2 0 43 14.5 50.7 35 3.5-.6 7.1-.9 10.8-.9 35.1 0 63.5 28.4 63.5 63.5s-28.4 63.5-63.5 63.5h-188.4z" fill="#c4c4b6"/><path d="m60.1 216.8c7.7-10.7 18.7-18.9 31.4-23.2-.7-3.6-1-7.4-1-11.2 0-35.1 28.4-63.5 63.5-63.5 27.9 0 51.7 18.1 60.2 43.2 7.3-3.7 15.6-5.8 24.4-5.8 23.2 0 43 14.5 50.7 35 3.5-.6 7.1-.9 10.8-.9 21.2 0 40 10.4 51.6 26.4-11.5 16-30.3 26.4-51.6 26.4h-188.4c-21.3.1-40.1-10.3-51.6-26.4z" fill="#d8d8cf"/></g><path d="m378.7 116.5c1 6.8 7.3 11.4 14.1 10.4 6.7-1 11.4-7.3 10.4-14.1-1.7-11.3-7.5-20.9-15.8-27.7-8.2-6.7-18.9-10.5-30.2-9.9-11.4.6-21.7 5.4-29.2 12.9s-12.3 17.8-12.9 29.2c-.6 11.3 3.2 22 9.9 30.2s16.5 14.1 27.7 15.8c.6.1 1.2.1 1.8.1h114c6.8 0 12.4-5.6 12.4-12.4s-5.6-12.4-12.4-12.4h-113c-4.6-.9-8.6-3.4-11.4-6.8-3-3.7-4.6-8.4-4.4-13.5.3-5 2.4-9.5 5.7-12.8s7.9-5.5 12.8-5.8c5-.3 9.8 1.4 13.5 4.4 3.7 3.2 6.3 7.4 7 12.4z" fill="#d8d8cf"/><path d="m414.2 333.3c.7-4.4 4.8-7.5 9.2-6.8s7.5 4.8 6.8 9.2c-1.1 7.3-4.9 13.7-10.3 18.1s-12.3 6.9-19.7 6.5c-7.5-.4-14.1-3.5-19-8.4s-8.1-11.6-8.4-19c-.4-7.4 2.1-14.3 6.5-19.7s10.7-9.2 18.1-10.3c.4-.1.8-.1 1.2-.1h74.4c4.5 0 8.1 3.6 8.1 8.1s-3.6 8.1-8.1 8.1h-73.8c-3 .6-5.6 2.2-7.4 4.4-2 2.4-3.1 5.5-2.9 8.8s1.6 6.2 3.7 8.4c2.2 2.2 5.1 3.6 8.4 3.7 3.3.2 6.4-.9 8.8-2.9 2.3-2 4-4.8 4.4-8.1z" fill="#c4c4b6"/><path d="m378.7 426.2c1-6.7 7.3-11.4 14.1-10.4 6.7 1 11.4 7.3 10.4 14.1-1.7 11.2-7.5 20.9-15.8 27.7-8.2 6.7-18.9 10.5-30.2 9.9-11.4-.6-21.7-5.4-29.2-12.9s-12.3-17.7-12.9-29.2c-.6-11.3 3.2-22 9.9-30.2 6.7-8.3 16.5-14.1 27.7-15.8.6-.1 1.2-.1 1.8-.1h114c6.8 0 12.4 5.6 12.4 12.4s-5.6 12.4-12.4 12.4h-113c-4.6.9-8.6 3.4-11.4 6.8-3 3.7-4.6 8.4-4.4 13.5.3 5 2.4 9.5 5.7 12.8s7.9 5.5 12.8 5.8c5 .3 9.8-1.4 13.5-4.4 3.7-3.2 6.3-7.4 7-12.4z" fill="#c4c4b6"/><path d="m414.2 209.4c.7 4.4 4.8 7.5 9.2 6.8s7.5-4.8 6.8-9.2c-1.1-7.3-4.9-13.7-10.3-18.1s-12.3-6.9-19.7-6.5c-7.5.4-14.1 3.5-19 8.4s-8.1 11.6-8.4 19c-.4 7.4 2.1 14.3 6.5 19.7s10.7 9.2 18.1 10.3c.4.1.8.1 1.2.1h74.4c4.5 0 8.1-3.6 8.1-8.1s-3.6-8.1-8.1-8.1h-73.8c-3-.6-5.6-2.2-7.4-4.4-2-2.4-3.1-5.5-2.9-8.8.2-3.2 1.6-6.2 3.7-8.4 2.2-2.2 5.1-3.6 8.4-3.8 3.3-.1 6.4.9 8.8 2.9 2.3 2.1 4 4.9 4.4 8.2z" fill="#d8d8cf"/><path d="m264.9 376.2c.7-4.4 4.8-7.4 9.2-6.8 4.4.7 7.5 4.8 6.8 9.2-1.1 7.3-4.9 13.7-10.3 18.1s-12.3 6.9-19.7 6.5c-7.5-.4-14.1-3.5-19-8.4s-8.1-11.6-8.4-19c-.4-7.4 2.1-14.3 6.5-19.7s10.7-9.2 18.1-10.3c.4-.1.8-.1 1.2-.1h74.4c4.5 0 8.1 3.6 8.1 8.1s-3.6 8.1-8.1 8.1h-73.8c-3 .6-5.6 2.2-7.5 4.4-1.9 2.4-3 5.5-2.9 8.8.1 3.2 1.6 6.2 3.7 8.4 2.2 2.2 5.1 3.6 8.4 3.7 3.3.2 6.4-.9 8.8-2.9 2.3-2 4-4.8 4.5-8.1z" fill="#d8d8cf"/><path clip-rule="evenodd" d="m162.8 385.3c21.3 34.9 11.9 34.8 51.2 38.3-27.9 27.9-20.8 21.8-14.7 62.2-21.2-34.9-11.9-34.8-51.2-38.4 27.9-27.8 20.8-21.7 14.7-62.1z" fill="#c4c4b6" fill-rule="evenodd"/><path clip-rule="evenodd" d="m162.8 385.3c21.3 34.9 11.9 34.8 51.2 38.3-11.6 11.7-17.2 17.4-19.2 23-8.7-4-18.3-14.8-26.4-29.7-.5-6.4-3.1-15.1-5.6-31.6z" fill="#d8d8cf" fill-rule="evenodd"/><path clip-rule="evenodd" d="m250.6 36.7c5.8 40.5-2.8 36.6 31.9 55.4-36.6 14.7-27.7 11.8-38 51.4-5.8-40.5 2.8-36.6-31.9-55.4 36.6-14.7 27.7-11.8 38-51.4z" fill="#c4c4b6" fill-rule="evenodd"/><path clip-rule="evenodd" d="m250.6 36.7c5.8 40.5-2.8 36.6 31.9 55.4-15.3 6.1-22.6 9.2-26.8 13.6-6.4-7.1-11-20.8-12.6-37.7 2.3-6.1 3.3-15.2 7.5-31.3z" fill="#d8d8cf" fill-rule="evenodd"/></g></svg>