<svg height="512" viewBox="0 0 128 128" width="512" xmlns="http://www.w3.org/2000/svg"><g fill="#d0d2d2"><path d="m39.381 54.659a1.749 1.749 0 0 1 -1.333-2.882c6.356-7.493 3.053-12.125-.772-17.488-3.714-5.208-8.336-11.689.948-19.889a1.75 1.75 0 1 1 2.317 2.623c-6.921 6.116-4.192 9.943-.415 15.239 3.88 5.441 8.71 12.213.591 21.784a1.748 1.748 0 0 1 -1.336.613z"/><path d="m89.5 54.659a1.75 1.75 0 0 1 -1.334-2.882c6.357-7.493 3.054-12.125-.771-17.488-3.714-5.208-8.337-11.689.947-19.894a1.75 1.75 0 0 1 2.318 2.623c-6.921 6.116-4.192 9.943-.415 15.239 3.88 5.441 8.709 12.213.59 21.784a1.746 1.746 0 0 1 -1.335.618z"/><path d="m64.521 46.256a1.75 1.75 0 0 1 -1.334-2.882c6.357-7.493 3.054-12.125-.771-17.488-3.716-5.208-8.336-11.686.947-19.895a1.75 1.75 0 0 1 2.318 2.623c-6.921 6.116-4.192 9.944-.415 15.239 3.88 5.442 8.71 12.214.59 21.785a1.746 1.746 0 0 1 -1.335.618z"/></g><path d="m23.909 119.433h87.818c9.818-4.615 12.828-24.363-2.182-27.251 4.637-7.636-1.636-16.091-9.818-14.288 1.967-8.752-9.668-17.4-19.636-9.44-6.546-16.363-24.057-13.822-28.637 0-17.181-12.818-31 1.005-25.909 15.819-22.758 5.801-22.909 31.091-1.636 35.16z" fill="#d0d2d2"/><g fill="#e2e2e2"><path d="m95.135 112.414a1.747 1.747 0 0 1 -1.4-.7c-2.191-2.905-4.582-3.355-7.755-1.46a1.75 1.75 0 0 1 -1.794-3.006c4.7-2.8 9.081-1.968 12.344 2.358a1.751 1.751 0 0 1 -1.4 2.8z"/><path d="m28.44 111.065a1.748 1.748 0 0 1 -1.533-2.59c.98-1.789 3.189-4.307 7.487-2.861a6.616 6.616 0 0 1 5.482-4.095 6.5 6.5 0 0 1 6.372 3.958 1.749 1.749 0 1 1 -3.224 1.359 3.006 3.006 0 0 0 -2.9-1.826c-1.407.1-2.484 1.3-3.031 3.392a1.752 1.752 0 0 1 -2.513 1.1c-3.04-1.61-3.941-.561-4.605.652a1.748 1.748 0 0 1 -1.535.911z"/><path d="m71.221 75.33a1.746 1.746 0 0 1 -1.35-.636c-2.433-2.945-4.727-3.163-7.673-.73a1.75 1.75 0 0 1 -2.228-2.7c4.449-3.675 8.924-3.249 12.6 1.2a1.749 1.749 0 0 1 -1.348 2.864z"/><path d="m75.326 98.538a1.745 1.745 0 0 1 -1.326-.608c-1.88-2.184-3.67-2.47-5.983-.956a1.75 1.75 0 0 1 -2.307-.351 4.574 4.574 0 0 0 -2.878-1.91 4.63 4.63 0 0 0 -3.186 1.333 1.75 1.75 0 0 1 -2.23-2.7 7.87 7.87 0 0 1 5.748-2.121 7.145 7.145 0 0 1 4.236 2.088c3.335-1.576 6.578-.773 9.251 2.334a1.75 1.75 0 0 1 -1.325 2.891z"/><path d="m36.54 83.392a1.752 1.752 0 0 1 -1.7-2.16 5.76 5.76 0 0 1 2.835-4.11c1.429-.709 3.181-.615 5.213.275a1.751 1.751 0 0 1 -1.41 3.203 3.012 3.012 0 0 0 -2.25-.346 2.683 2.683 0 0 0 -.988 1.794 1.751 1.751 0 0 1 -1.7 1.344z"/><path d="m100.2 91.38a1.747 1.747 0 0 1 -1.621-1.091c-.415-1.02-.9-1.665-1.373-1.816a2.687 2.687 0 0 0 -1.959.6 1.75 1.75 0 1 1 -1.87-2.959 5.758 5.758 0 0 1 4.9-.971c1.517.487 2.71 1.775 3.546 3.831a1.75 1.75 0 0 1 -1.623 2.406z"/></g></svg>