<svg id="Layer_1" height="512" viewBox="0 0 64 64" width="512" xmlns="http://www.w3.org/2000/svg" data-name="Layer 1"><g fill="#d1d3d4"><path d="m61 41h-14a2 2 0 0 1 0-4h4a2 2 0 0 0 0-4h-24a2 2 0 0 0 0 4h11a2 2 0 0 1 0 4h-1a2 2 0 0 0 0 4h24a2 2 0 0 0 0-4z"/><path d="m32 52h-20a2 2 0 0 0 0 4h3a2 2 0 0 1 0 4h-12a2 2 0 0 0 0 4h24a2 2 0 0 0 0-4h-3a2 2 0 0 1 0-4h8a2 2 0 0 0 0-4z"/><path d="m62 52h-20a2 2 0 0 0 0 4h7a2 2 0 0 1 0 4h-13a2 2 0 0 0 0 4h24a2 2 0 0 0 0-4h-2a2 2 0 0 1 0-4h4a2 2 0 0 0 0-4z"/><path d="m15 39h4a2 2 0 0 0 0-4h-14a2 2 0 0 0 0 4h1a2 2 0 0 1 0 4h-4a2 2 0 0 0 0 4h24a2 2 0 0 0 0-4h-11a2 2 0 0 1 0-4z"/></g><path d="m48 10a8.9489 8.9489 0 0 0 -5.20947 1.66974 13.99232 13.99232 0 0 0 -27.79053 2.33026c0 .027.00385.0531.004.08014a6.9964 6.9964 0 1 0 -1.004 13.91986h34a9 9 0 0 0 0-18z" fill="#f1f2f2"/><path d="m49 24h-34a6.99418 6.99418 0 0 1 -6.981-6.62329 6.98925 6.98925 0 0 0 5.981 10.62329h34a8.99654 8.99654 0 0 0 8.99377-8.87616 8.99311 8.99311 0 0 1 -7.99377 4.87616z" fill="#d1d3d4"/><path d="m20 11.00049a1.00113 1.00113 0 0 1 -.92871-1.37207c.08984-.22461 2.26465-5.51514 7.73242-6.60889a.99993.99993 0 1 1 .39258 1.96094c-4.418.88379-6.25 5.34619-6.26758 5.39111a1.00107 1.00107 0 0 1 -.92871.62891z" fill="#d1d3d4"/><path d="m19 13h2v2h-2z" fill="#d1d3d4"/></svg>