<svg id="Flat" height="512" viewBox="0 0 64 64" width="512" xmlns="http://www.w3.org/2000/svg"><path d="m54.081 15.53s-1.827 1.523-3.35-.914c0 0-1.827.914-4.264 0 0 0-3.35.609-3.35-3.046s2.741-3.35 2.741-3.35.609-2.132 3.35-2.132c0 0 .305-3.046 3.35-3.046 3.046 0 3.046 1.827 3.046 1.827s3.35-.609 3.35 2.437c0 0 3.046.305 3.046 3.35s-.914 4.569-4.264 4.569c0 0-1.523 1.219-3.655.305z" fill="#f7f7f7"/><path d="m62 10.66c0 3.04-.91 4.57-4.26 4.57 0 0-.53.42-1.41.57.49-.75.67-1.8.67-3.14 0-3.05-3.05-3.35-3.05-3.35 0-3.05-3.35-2.44-3.35-2.44s0-.99-1.22-1.51c.3-.9 1.1-2.32 3.18-2.32 3.04 0 3.04 1.83 3.04 1.83s3.35-.61 3.35 2.44c0 0 3.05.3 3.05 3.35z" fill="#d0dadd"/><path d="m1 28.407s0-7.367 5.262-7.367c0 0 1.052-7.367 9.472-7.367 0 0 5.262-9.472 13.681-2.105 0 0 11.577-2.105 11.577 7.367 0 0 8.419 2.105 5.262 9.472 0 0 4.21 10.524-7.367 10.524 0 0-10.524 4.21-17.891-2.105 0 .001-19.996 5.606-19.996-8.419z" fill="#f7f7f7"/><path d="m38.89 38.93s-1.02.41-2.64.78c1.68-3.1 0-7.3 0-7.3 3.16-7.37-5.26-9.47-5.26-9.47 0-7.236-6.741-7.72-9.932-7.543-1.01.056-2.021-.195-2.844-.783-.789-.563-1.547-.981-2.273-1.274 1.03-1.61 6.02-8.3 13.48-1.77 0 0 11.57-2.11 11.57 7.37 0 0 8.42 2.1 5.26 9.47-.001 0 4.209 10.52-7.361 10.52z" fill="#d0dadd"/><path d="m14.314 16.837c-2.015.268-4.093 1.483-5.176 3.265-1.124 1.849 1.775 3.536 2.895 1.692.451-.741 1.165-1.294 1.997-1.545.398-.12.822-.173 1.183-.379.446-.254.75-.74.784-1.252.057-.861-.759-1.904-1.683-1.781z" fill="#d0dadd"/><g><g><path d="m50 47h-17c-.553 0-1-.447-1-1s.447-1 1-1h17c1.103 0 2-.897 2-2s-.897-2-2-2h-3c-.553 0-1-.447-1-1s.447-1 1-1h3c2.206 0 4 1.794 4 4s-1.794 4-4 4z" fill="#d0dadd"/></g></g><g><g><path d="m60 51h-17c-.553 0-1-.447-1-1s.447-1 1-1h17c1.103 0 2-.897 2-2s-.897-2-2-2h-3c-.553 0-1-.447-1-1s.447-1 1-1h3c2.206 0 4 1.794 4 4s-1.794 4-4 4z" fill="#d0dadd"/></g></g><g><g><path d="m51 61h-3c-.553 0-1-.447-1-1s.447-1 1-1h3c1.103 0 2-.897 2-2s-.897-2-2-2h-17c-.553 0-1-.447-1-1s.447-1 1-1h17c2.206 0 4 1.794 4 4s-1.794 4-4 4z" fill="#d0dadd"/></g></g><g><g><path d="m29 47h-1c-.553 0-1-.447-1-1s.447-1 1-1h1c.553 0 1 .447 1 1s-.447 1-1 1z" fill="#d0dadd"/></g></g><g><g><path d="m40 51h-1c-.553 0-1-.447-1-1s.447-1 1-1h1c.553 0 1 .447 1 1s-.447 1-1 1z" fill="#d0dadd"/></g></g><g><g><path d="m30 55h-2c-.553 0-1-.447-1-1s.447-1 1-1h2c.553 0 1 .447 1 1s-.447 1-1 1z" fill="#d0dadd"/></g></g></svg>