<svg id="Layer_3" enable-background="new 0 0 64 64" viewBox="0 0 64 64" xmlns="http://www.w3.org/2000/svg"><g><g><path d="m12 46h-6c-.553 0-1-.448-1-1s.447-1 1-1h6c.553 0 1 .448 1 1s-.447 1-1 1z" fill="#d4d4d5"/></g></g><g><g><path d="m12 54h-6c-.553 0-1-.448-1-1s.447-1 1-1h6c.553 0 1 .448 1 1s-.447 1-1 1z" fill="#d4d4d5"/></g></g><g><g><path d="m8 58h-6c-.553 0-1-.448-1-1s.447-1 1-1h6c.553 0 1 .448 1 1s-.447 1-1 1z" fill="#d4d4d5"/></g></g><g><g><path d="m62 50h-6c-.553 0-1-.448-1-1s.447-1 1-1h6c.553 0 1 .448 1 1s-.447 1-1 1z" fill="#d4d4d5"/></g></g><g><g><path d="m62 58h-6c-.553 0-1-.448-1-1s.447-1 1-1h6c.553 0 1 .448 1 1s-.447 1-1 1z" fill="#d4d4d5"/></g></g><g><g><path d="m58 54h-42c-.553 0-1-.448-1-1s.447-1 1-1h42c.553 0 1 .448 1 1s-.447 1-1 1z" fill="#d4d4d5"/></g></g><g><g><path d="m52 50h-40c-.553 0-1-.448-1-1s.447-1 1-1h40c.553 0 1 .448 1 1s-.447 1-1 1z" fill="#d4d4d5"/></g></g><g><g><path d="m52 59h-40c-.553 0-1-.448-1-1s.447-1 1-1h40c.553 0 1 .448 1 1s-.447 1-1 1z" fill="#d4d4d5"/></g></g><g><g><path d="m46 63h-40c-.553 0-1-.448-1-1s.447-1 1-1h40c.553 0 1 .448 1 1s-.447 1-1 1z" fill="#d4d4d5"/></g></g><g><g><path d="m56 63h-4c-.553 0-1-.448-1-1s.447-1 1-1h4c.553 0 1 .448 1 1s-.447 1-1 1z" fill="#d4d4d5"/></g></g><path d="m48.5 17h-3.762c.165-.64.262-1.308.262-2 0-4.418-3.582-8-8-8-1.842 0-3.533.629-4.885 1.675-1.681-3.925-5.576-6.675-10.115-6.675-6.075 0-11 4.925-11 11 0 1.413.276 2.759.761 4h-1.261c-4.694 0-8.5 3.806-8.5 8.5s3.806 8.5 8.5 8.5h38c4.694 0 8.5-3.806 8.5-8.5s-3.806-8.5-8.5-8.5z" fill="#999"/><path d="m48.5 17h-3.762c.165-.64.262-1.308.262-2 0-4.418-3.582-8-8-8-1.842 0-3.533.629-4.885 1.675-1.681-3.925-5.576-6.675-10.115-6.675-6.075 0-11 4.925-11 11 0 1.413.276 2.759.761 4h-1.261c-1.249 0-2.432.276-3.5.76v.24c0 6.627 5.373 12 12 12h36.702c.818-1.306 1.298-2.845 1.298-4.5 0-4.694-3.806-8.5-8.5-8.5z" fill="#b9bbbc"/><path d="m56.881 32.072c-.42-1.76-1.993-3.072-3.881-3.072-.741 0-1.427.215-2.022.567-.228-5.321-4.601-9.567-9.978-9.567-4.145 0-7.701 2.522-9.217 6.116-1.092-.703-2.388-1.116-3.783-1.116-3.866 0-7 3.134-7 7 0 .03.004.059.005.089-2.839.475-5.005 2.937-5.005 5.911 0 3.314 2.686 6 6 6h34c3.314 0 6-2.686 6-6 0-3.014-2.224-5.501-5.119-5.928z" fill="#c7c9c9"/><path d="m56.881 32.072c-.42-1.76-1.993-3.072-3.881-3.072-.741 0-1.427.215-2.022.567-.228-5.321-4.601-9.567-9.978-9.567-4.145 0-7.701 2.522-9.217 6.116-1.092-.703-2.388-1.116-3.783-1.116-1.418 0-2.736.425-3.839 1.15 1.053 7.817 7.733 13.85 15.839 13.85h21.651c.222-.626.349-1.298.349-2 0-3.014-2.224-5.501-5.119-5.928z" fill="#d5d6d7"/><g><path d="m15 14c-.552 0-1-.448-1-1 0-4.411 3.589-8 8-8 .552 0 1 .448 1 1s-.448 1-1 1c-3.309 0-6 2.691-6 6 0 .552-.448 1-1 1z" fill="#fff"/></g><g><path d="m47 31c-.552 0-1-.448-1-1 0-2.757-2.243-5-5-5-.552 0-1-.448-1-1s.448-1 1-1c3.86 0 7 3.14 7 7 0 .552-.448 1-1 1z" fill="#fff"/></g></svg>