<svg fill="none" height="100" viewBox="0 0 100 100" width="100" xmlns="http://www.w3.org/2000/svg"><path d="m83.4708 34.9999c5.7259 0 10.3676-4.6885 10.3676-10.4721s-4.6417-10.4721-10.3676-10.4721c-.49 0-.9721.0343-1.444.1007-2.3296-4.829-7.2362-8.1564-12.9122-8.1564-6.5445 0-12.0661 4.4236-13.7941 10.4721h-3.2579c-5.1162 0-9.2638 4.1475-9.2638 9.2638 0 5.1162 4.1476 9.2637 9.2638 9.2637 10.4731 0 20.9432.0003 31.4082.0003z" fill="#cacaca"/><path d="m72.4103 27.6008c-2.9793-10.4285-12.4993-18.05539-23.783-18.05539-9.7862 0-18.2459 5.73689-22.2624 14.06289-.8137-.1146-1.6448-.1738-2.4897-.1738-9.8722 0-17.8752 8.0837-17.8752 18.0554s8.003 18.0554 17.8752 18.0554c18.0508 0 36.1016-.0004 54.1523-.0004 8.8212 0 15.9721-7.1509 15.9721-15.972 0-8.8212-7.1509-15.9721-15.9721-15.9721z" fill="#f2f2f2"/><path clip-rule="evenodd" d="m51.6884 16.3635c.1464-.5325.6968-.8455 1.2294-.699 1.6038.441 3.1444 1.096 4.5824 1.948.4751.2816.6321.895.3505 1.3701-.2815.4751-.8949.6321-1.3701.3505-1.2856-.7617-2.6617-1.3466-4.0932-1.7402-.5325-.1465-.8455-.6969-.699-1.2294z" fill="#cacaca" fill-rule="evenodd"/><path clip-rule="evenodd" d="m60.0209 20.693c.3955-.3855 1.0287-.3772 1.4141.0183 2.3583 2.4204 4.0543 5.4353 4.9175 8.7416.1396.5344-.1805 1.0807-.7149 1.2202s-1.0807-.1806-1.2202-.715c-.7767-2.9748-2.3013-5.6818-4.4149-7.8511-.3854-.3955-.3772-1.0286.0184-1.414z" fill="#cacaca" fill-rule="evenodd"/><g fill="#2f80ed"><path d="m36 88.293c0 3.1519-2.4624 5.707-5.5 5.707s-5.5-2.5551-5.5-5.707 5.0089-8.293 5.5-8.293 5.5 5.1411 5.5 8.293z"/><path d="m56 88.293c0 3.1519-2.4624 5.707-5.5 5.707s-5.5-2.5551-5.5-5.707 5.0089-8.293 5.5-8.293 5.5 5.1411 5.5 8.293z"/><path d="m76 88.293c0 3.1519-2.4624 5.707-5.5 5.707s-5.5-2.5551-5.5-5.707 5.0089-8.293 5.5-8.293 5.5 5.1411 5.5 8.293z"/><path d="m26 72.293c0 3.1519-2.4624 5.707-5.5 5.707s-5.5-2.5551-5.5-5.707 5.0089-8.293 5.5-8.293 5.5 5.1411 5.5 8.293z"/><path d="m46 72.293c0 3.1519-2.4624 5.707-5.5 5.707s-5.5-2.5551-5.5-5.707 5.0089-8.293 5.5-8.293 5.5 5.1411 5.5 8.293z"/><path d="m66 72.293c0 3.1519-2.4624 5.707-5.5 5.707s-5.5-2.5551-5.5-5.707 5.0089-8.293 5.5-8.293 5.5 5.1411 5.5 8.293z"/><path d="m86 72.293c0 3.1519-2.4624 5.707-5.5 5.707s-5.5-2.5551-5.5-5.707 5.0089-8.293 5.5-8.293 5.5 5.1411 5.5 8.293z"/></g></svg>