<svg height="512" viewBox="0 0 32 32" width="512" xmlns="http://www.w3.org/2000/svg"><g id="Desert"><path d="m22.94 20.22c-5.65 0-7.25 6.15-16.57 6.15h-4v3a1 1 0 0 0 1 1h26a1 1 0 0 0 1-1v-5.37a2.18 2.18 0 0 0 -.74-1.65c-1-.87-3-2.11-6.69-2.11" fill="#f2e6bb"/><path d="m9.81 20.22c-3.67 0-5.72 1.24-6.69 2.11a2.21 2.21 0 0 0 -.74 1.67v2.39h4a16 16 0 0 0 10-3.31c-2.11-1.45-3.89-2.84-6.57-2.84" fill="#dabb7b"/><path d="m10.49 8.24a2.25 2.25 0 1 1 -2.25-2.24 2.25 2.25 0 0 1 2.25 2.25" fill="#dabb7b"/><path d="m14.12 14.75a1.8 1.8 0 0 0 0 3.59h3.77a1.8 1.8 0 1 0 0-3.59z" fill="#e3def5"/><path d="m20.07 5.84a1.8 1.8 0 0 0 0 3.59h2.05a.55.55 0 0 1 .38.16.56.56 0 0 1 .15.37 2.28 2.28 0 0 0 2.24 2.34h3.24a2.34 2.34 0 0 0 0-4.67.93.93 0 0 1 -.92-.63 1.63 1.63 0 0 0 -1.6-1.15z" fill="#e3def5"/><path d="m14.71 14.75a1.8 1.8 0 1 1 0 3.59h3.18a1.8 1.8 0 1 0 0-3.59z" fill="#bcbfe8"/><path d="m22.43 5.84a1.73 1.73 0 0 1 1.67 1.16.9.9 0 0 0 .86.67 2.28 2.28 0 0 1 2.24 2.33 2.28 2.28 0 0 1 -2.2 2.31h3.17a2.28 2.28 0 0 0 2.2-2.31 2.28 2.28 0 0 0 -2.24-2.33.94.94 0 0 1 -.92-.67 1.62 1.62 0 0 0 -1.6-1.16z" fill="#bcbfe8"/><path d="m16.38 23.06c-.48-.32-.95-.66-1.41-1a19 19 0 0 1 -11 3.25h-1.59v1h4a16 16 0 0 0 10-3.25z" fill="#bd7153"/><g fill="#dabb7b" fill-rule="evenodd"><path d="m9 14.1v-1a.75.75 0 0 0 -1.5 0v1a.75.75 0 0 0 1.5 0z"/><path d="m12.92 11.86-.73-.73a.75.75 0 0 0 -1.06 1.06l.73.73a.75.75 0 1 0 1.06-1.06z"/><path d="m4.29 11.13-.73.72a.77.77 0 0 0 0 1.07.75.75 0 0 0 1.06 0l.73-.73a.75.75 0 0 0 0-1.06.74.74 0 0 0 -1.06 0z"/><path d="m14.1 7.49h-1a.75.75 0 0 0 0 1.5h1a.75.75 0 0 0 0-1.5z"/><path d="m3.41 7.49h-1a.75.75 0 1 0 0 1.5h1a.75.75 0 0 0 0-1.5z"/><path d="m11.86 3.56-.73.73a.75.75 0 1 0 1.06 1.06l.73-.73a.75.75 0 1 0 -1.06-1.06z"/><path d="m5.35 4.29-.73-.73a.75.75 0 1 0 -1.06 1.06l.73.73a.75.75 0 1 0 1.06-1.06z"/><path d="m9 3.41v-1a.75.75 0 0 0 -1.5 0v1a.75.75 0 0 0 1.5 0z"/></g></g></svg>