<svg clip-rule="evenodd" fill-rule="evenodd" height="173.397mm" image-rendering="optimizeQuality" shape-rendering="geometricPrecision" text-rendering="geometricPrecision" viewBox="0 0 173.397 173.397" width="173.397mm" xmlns="http://www.w3.org/2000/svg"><g id="Layer_x0020_1"><g id="_323670872"><path id="_323672408" d="m130.965 78.8942-68.2638 3.6905h-7.9075c-12.4486 0-22.5401-10.0915-22.5401-22.54 0-12.7278 10.523-22.9182 23.2381-22.5283-2.5625-13.8042 7.9892-26.6792 22.1595-26.6792 8.2487 0 15.4611 4.4317 19.3897 11.0433 10.3975-.742 19.9714 5.7191 23.1206 15.6786 11.7218.8002 20.9827 10.5605 20.9827 22.4856 0 7.8839-4.0486 14.821-10.1792 18.8495z" fill="#00b3e3"/><path id="_323671064" d="m125.124 98.4029-30.5316 1.8106h-17.6749c-8.0328 0-14.5445-6.5118-14.5445-14.5444 0-8.2129 6.7902-14.7884 14.9949-14.5369-1.6535-8.9075 5.1552-17.2153 14.2989-17.2153 5.3226 0 9.9766 2.8597 12.5116 7.1259 6.7092-.4788 12.887 3.6904 14.9191 10.117 7.5637.5163 13.5395 6.8144 13.5395 14.5093 0 5.482-3.0336 10.2549-7.513 12.7338z" fill="#039dcc"/><g fill="#e4eaf8"><path id="_323671496" d="m130.439 98.4029h-31.2048c-3.7892 0-6.8894 3.1002-6.8894 6.8894 0 .6873.1026 1.3699.3062 2.0264h-7.1955c-3.7892 0-6.8894 3.1002-6.8894 6.8894s3.1002 6.8894 6.8894 6.8894h31.2048c3.7892 0 6.8894-3.1002 6.8894-6.8894 0-.6873-.1026-1.3699-.3062-2.0264h7.1955c3.7892 0 6.8894-3.1002 6.8894-6.8894s-3.1002-6.8894-6.8894-6.8894z"/><path id="_323671184" d="m123.694 146.097h-22.6358c-2.7486 0-4.9975 2.2489-4.9975 4.9976 0 .4985.0744.9937.2221 1.4699h-5.2196c-2.7486 0-4.9975 2.2488-4.9975 4.9975s2.2489 4.9975 4.9975 4.9975h22.6358c2.7487 0 4.9976-2.2488 4.9976-4.9975 0-.4985-.0745-.9937-.2221-1.4699h5.2195c2.7487 0 4.9976-2.2489 4.9976-4.9975 0-2.7487-2.2489-4.9976-4.9976-4.9976z"/><rect id="_323671376" height="10.456" rx="5.228" width="44.506" x="22.726" y="152.104"/><path id="_323671808" d="m54.8091 122.732h-23.4441c-2.8468 0-5.176 2.3292-5.176 5.176 0 .5164.0771 1.0292.23 1.5224h-5.4059c-2.8468 0-5.176 2.3292-5.176 5.176s2.3292 5.176 5.176 5.176h23.444c2.8468 0 5.176-2.3292 5.176-5.176 0-.5163-.0771-1.0292-.23-1.5224h5.406c2.8468 0 5.176-2.3292 5.176-5.176s-2.3292-5.176-5.176-5.176z"/><rect id="_323671136" height="8.676" rx="4.338" width="36.93" x="120.631" y="129.412"/><rect id="_323670728" height="8.676" rx="4.338" width="26.474" x="73.838" y="129.412"/></g></g></g></svg>