<svg id="Layer_1" enable-background="new 0 0 500 500" viewBox="0 0 500 500" xmlns="http://www.w3.org/2000/svg"><g><path d="m196.841 102.214c-83.815 104.056-1.514 126.879 3.92 189.038 5.435 62.161-49.433 44.682-80.089 87.51-30.657 42.829-30.182 96.238-30.182 96.238s47.048-69.08 139.172-73.088c100.865-5.498 146.62-49.238 110.474-147.608-19.651-53.477 24.806-139.941 27.423-144.76 2.616-4.82-139.835-45.669-170.718-7.33z" fill="#c1c9de"/><path d="m221.031 337.395c41.022-32.461-51.861-116.55-14.301-187.427l-34.55-11.223c-39.107 74.063 23.851 98.386 28.581 152.507 5.435 62.161-49.433 44.682-80.089 87.51-30.657 42.829-30.182 96.238-30.182 96.238 16.575-95.603 70.446-90.053 130.541-137.605z" fill="#fff" opacity=".2"/><path d="m229.662 401.912c100.865-5.498 146.62-49.238 110.474-147.61-19.651-53.476 24.806-139.94 27.422-144.758.074-.137-.002-.311-.155-.503-41.085-2.06-113.085 67.754-65.73 118.835 48.494 52.307 40.866 147.116-62.661 153.11-103.526 5.993-148.522 94.014-148.522 94.014s47.048-69.08 139.172-73.088z" fill="#6e7b99" opacity=".1"/><path d="m229.662 401.912c100.865-5.498 146.62-49.238 110.474-147.61-8.55-23.266-4.955-52.771 2.04-79.086-21.608 19.073-9.447 69.125.727 128.759 10.534 61.753-30.877 78.827-124.595 91.903-93.72 13.077-127.818 79.122-127.818 79.122s47.048-69.08 139.172-73.088z" fill="#fff" opacity=".3"/><path d="m261.533 151.048-87.391-15.855c-43.026 76.838 21.815 101.085 26.619 156.059 5.435 62.161-49.433 44.682-80.089 87.51-28.068 39.213-30.034 87.167-30.167 95.007 11.984-27.836 34.878-65.123 76.947-90.243 74.829-44.679 98.078-42.136 92.991-95.897-5.086-53.76-49.038-96.261 1.09-136.581z" fill="#fff" opacity=".3"/><g><path d="m425.541 126.709c-2.991 0-5.835.519-8.594 1.256-6.107-19.862-24.104-34.46-45.677-35.624-11.541-22.293-34.772-37.555-61.607-37.555-4.381 0-8.651.453-12.808 1.231-15.453-18.924-38.953-31.017-65.29-31.017-28.172 0-53.047 13.875-68.35 35.107-1.547-.107-3.089-.236-4.663-.236-24.632 0-46.095 13.362-57.688 33.198-2.972-.543-6.021-.868-9.149-.868-27.987 0-50.673 22.687-50.673 50.672 0 27.987 22.687 50.674 50.673 50.674 0 0 26.612-.048 64.763-.104.695.02 1.374.104 2.074.104.742 0 1.461-.087 2.197-.112 20.089-.028 43.026-.057 66.925-.084 1.299.059 2.578.196 3.892.196 1.371 0 2.706-.14 4.061-.205 22.982-.025 46.514-.045 68.898-.054 1.703.124 3.404.259 5.14.259 1.763 0 3.493-.133 5.222-.264 17.412-.005 33.825-.005 48.501.005 1.686.169 3.395.259 5.124.259 1.675 0 3.328-.092 4.963-.25 30.051.029 50.551.104 52.068.25 18.457 0 33.418-14.963 33.418-33.42-.002-18.455-14.963-33.418-33.42-33.418z" fill="#95aade"/><g fill="#fff" opacity=".3"><path d="m415.193 123.515c-.741-1.782-1.569-3.502-2.501-5.174.753 1.725 1.515 3.446 2.075 5.265.139-.037.287-.055.426-.091z"/><path d="m454.403 143.563c1.492 3.789 2.377 7.887 2.377 12.206 0 18.457-14.961 33.42-33.42 33.42-1.515-.146-22.015-.22-52.066-.25-1.635.158-3.288.25-4.963.25-1.729 0-3.438-.09-5.124-.259-14.676-.009-31.088-.009-48.501-.005-1.729.13-3.46.264-5.222.264-1.736 0-3.437-.135-5.14-.259-22.384.009-45.916.029-68.898.054-1.355.065-2.69.205-4.061.205-1.313 0-2.592-.137-3.892-.196-23.9.026-46.837.056-66.925.084-.736.025-1.455.112-2.197.112-.7 0-1.379-.084-2.074-.104-38.151.056-64.764.104-64.764.104-18.976 0-35.49-10.447-44.173-25.886 7.859 17.804 25.64 30.245 46.352 30.245 0 0 26.612-.048 64.763-.104.695.02 1.374.104 2.074.104.742 0 1.461-.087 2.197-.112 20.089-.028 43.026-.057 66.925-.084 1.299.059 2.578.196 3.892.196 1.371 0 2.706-.14 4.061-.205 22.982-.025 46.514-.045 68.898-.054 1.703.124 3.404.259 5.14.259 1.763 0 3.493-.133 5.222-.264 17.412-.005 33.825-.005 48.501.005 1.686.169 3.395.259 5.124.259 1.675 0 3.328-.092 4.963-.25 30.051.029 50.551.104 52.068.25 18.457 0 33.418-14.963 33.418-33.42.001-6.059-1.736-11.664-4.555-16.565z"/></g><path d="m436.949 128.839c-1.118 17.445-15.477 31.289-33.204 31.289-1.517-.144-22.015-.221-52.068-.25-1.633.16-3.286.25-4.961.25-1.731 0-3.44-.089-5.124-.258-14.676-.011-31.088-.011-48.502-.005-1.729.129-3.459.262-5.221.262-1.735 0-3.437-.133-5.14-.259-22.384.011-45.916.029-68.898.054-1.355.065-2.69.205-4.061.205-1.315 0-2.592-.137-3.892-.196-23.9.026-46.837.056-66.926.085-.736.023-1.455.11-2.197.11-.7 0-1.379-.082-2.074-.104-38.151.056-64.763.104-64.763.104-10.386 0-20.033-3.136-28.071-8.494 4.155 23.803 24.872 41.914 49.866 41.914 0 0 26.612-.048 64.763-.104.695.02 1.374.104 2.074.104.742 0 1.461-.087 2.197-.112 20.089-.028 43.026-.057 66.925-.084 1.299.059 2.578.196 3.892.196 1.371 0 2.706-.14 4.061-.205 22.982-.025 46.514-.045 68.898-.054 1.703.124 3.404.259 5.14.259 1.763 0 3.493-.133 5.222-.264 17.412-.005 33.825-.005 48.501.005 1.686.169 3.395.259 5.124.259 1.675 0 3.328-.092 4.963-.25 30.051.029 50.551.104 52.068.25 18.457 0 33.418-14.963 33.418-33.42 0-14.429-9.197-26.61-22.01-31.287z" fill="#747699" opacity=".1"/><g fill="#fff"><path d="m45.944 155.952c0-27.987 22.687-50.674 50.673-50.674 3.129 0 6.178.325 9.149.868 11.593-19.836 33.056-33.198 57.688-33.198 1.575 0 3.116.129 4.663.236 15.303-21.233 40.178-35.107 68.35-35.107 26.337 0 49.837 12.094 65.292 31.017 4.156-.778 8.426-1.231 12.807-1.231 26.835 0 50.065 15.262 61.607 37.555 21.573 1.164 39.57 15.762 45.677 35.624 2.758-.736 5.602-1.256 8.594-1.256 11.754 0 22.046 6.099 28.004 15.273-2.459-16.032-16.188-28.35-32.908-28.35-2.991 0-5.835.519-8.594 1.256-6.107-19.862-24.104-34.46-45.677-35.624-11.541-22.293-34.772-37.555-61.607-37.555-4.381 0-8.651.453-12.808 1.231-15.452-18.924-38.952-31.017-65.289-31.017-28.172 0-53.047 13.875-68.35 35.107-1.547-.107-3.089-.236-4.663-.236-24.632 0-46.095 13.362-57.688 33.198-2.972-.543-6.021-.868-9.149-.868-27.987 0-50.673 22.687-50.673 50.672 0 8.794 2.245 17.06 6.185 24.267-.815-3.603-1.283-7.338-1.283-11.188z" opacity=".2"/><path d="m244.733 121.286c20.987 0 37.996 16.307 39.486 36.914.07-.961.289-1.88.289-2.859 0-21.968-17.808-39.777-39.775-39.777-21.968 0-39.777 17.808-39.777 39.777 0 .98.219 1.898.289 2.859 1.492-20.607 18.501-36.914 39.488-36.914z" opacity=".4"/><path d="m100.804 105.851c13.07 0 23.662 10.155 24.59 22.988.044-.599.18-1.17.18-1.78 0-13.681-11.09-24.77-24.77-24.77s-24.77 11.09-24.77 24.77c0 .61.136 1.181.18 1.78.929-12.833 11.521-22.988 24.59-22.988z" opacity=".4"/><path d="m288.786 73.082c13.069 0 23.662 10.155 24.59 22.988.043-.598.18-1.171.18-1.781 0-13.681-11.091-24.77-24.77-24.77-13.681 0-24.77 11.09-24.77 24.77 0 .61.137 1.183.18 1.781.928-12.833 11.52-22.988 24.59-22.988z" opacity=".4"/><path d="m376.331 132.402c13.07 0 23.662 10.157 24.592 22.99.042-.599.178-1.172.178-1.782 0-13.681-11.09-24.77-24.77-24.77-13.679 0-24.769 11.09-24.769 24.77 0 .61.135 1.183.178 1.782.931-12.833 11.522-22.99 24.591-22.99z" opacity=".4"/><path d="m173.459 86.357c13.07 0 23.662 10.157 24.592 22.99.044-.599.178-1.172.178-1.782 0-13.681-11.09-24.77-24.77-24.77-13.679 0-24.769 11.09-24.769 24.77 0 .61.136 1.183.18 1.782.928-12.833 11.52-22.99 24.589-22.99z" opacity=".4"/></g></g><g fill="#c1c9de"><path d="m181.618 283.27c-63.568 0-144.936 18.527 37.779 60.663 182.714 42.138 148.197-3.632 148.197-3.632s11.996 37.416-143.111-5.449c-155.109-42.864-42.865-51.582-42.865-51.582z" opacity=".3"/><path d="m168.194 227.033c-56.667 26.153 41.047 41.773 149.658 25.79 108.613-15.983 32.999-38.141 32.999-38.141s63.263 26.517-75.862 35.961c-139.124 9.445-106.795-23.61-106.795-23.61z" opacity=".3"/><path d="m101.34 386.797c-44.316 13.44-37.051 37.051 25.064 53.033 62.115 15.984 42.137-11.987 42.137-11.987s0 22.523-51.218 0c-51.218-22.52-15.983-41.046-15.983-41.046z" opacity=".4"/></g><path d="m146.292 338.936c-41.047 3.269-43.279 35.663 31.395 66.689 74.674 31.025 69.589 0 69.589 0s-10.587 27.755-79.033-14.382c-68.447-42.136-21.951-52.307-21.951-52.307z" fill="#fff" opacity=".5"/><path d="m189.258 280.477c-16.438 12.44-44.771 26.88 72.104 32.329 116.877 5.449 90.177-25.064 90.177-25.064s15.391 21.374-77.784 18.105c-93.173-3.269-84.497-25.37-84.497-25.37z" fill="#fff" opacity=".4"/></g></svg>