<svg height="512pt" viewBox="-1 0 512 512" width="512pt" xmlns="http://www.w3.org/2000/svg"><path d="m415 330h-320c-52.382812 0-95-42.617188-95-95 0-47.355469 34.828125-86.726562 80.214844-93.851562-.144532-2.058594-.214844-4.109376-.214844-6.148438 0-52.382812 42.617188-95 95-95 15.769531 0 30.890625 3.792969 44.515625 11.082031 8.6875-12.992187 19.957031-24.125 33.179687-32.695312 18.5625-12.03125 40.105469-18.386719 62.304688-18.386719 63.410156 0 115 51.589844 115 115 0 8.738281-.980469 17.347656-2.929688 25.765625 46.703126 5.949219 82.929688 45.941406 82.929688 94.234375 0 52.382812-42.617188 95-95 95zm0 0" fill="#7290a1"/><path d="m255 330h160c52.382812 0 95-42.617188 95-95 0-48.292969-36.226562-88.285156-82.929688-94.234375 1.949219-8.417969 2.929688-17.027344 2.929688-25.765625 0-63.410156-51.589844-115-115-115-21.289062 0-41.96875 5.863281-60 16.953125zm0 0" fill="#557a8f"/><path d="m131.59375 420c-2.410156 0-4.839844-.578125-7.070312-1.773438-5.828126-3.121093-8.929688-9.6875-7.632813-16.167968l14.414063-72.058594h-22.90625c-5.402344 0-10.390626-2.90625-13.050782-7.609375-2.664062-4.703125-2.589844-10.472656.191406-15.109375l55.199219-92c2.710938-4.515625 7.59375-7.28125 12.863281-7.28125h70c5.53125 0 10.613282 3.046875 13.222657 7.921875 2.609375 4.878906 2.324219 10.796875-.742188 15.398437l-24.453125 36.679688h31.972656c6.066407 0 11.535157 3.652344 13.855469 9.261719 2.320313 5.601562 1.039063 12.054687-3.25 16.34375l-122 122c-2.882812 2.886719-6.726562 4.394531-10.613281 4.394531zm0 0" fill="#ffe31f"/><path d="m271.996094 512c-2.414063 0-4.84375-.578125-7.074219-1.773438-5.828125-3.121093-8.925781-9.6875-7.632813-16.167968l14.414063-72.058594h-22.902344c-5.40625 0-10.390625-2.90625-13.054687-7.609375-2.660156-4.703125-2.589844-10.472656.191406-15.109375l55.199219-92c2.710937-4.515625 7.59375-7.28125 12.863281-7.28125h70c5.53125 0 10.613281 3.046875 13.226562 7.921875 2.609376 4.878906 2.324219 10.796875-.746093 15.398437l-24.453125 36.679688h31.972656c6.066406 0 11.535156 3.652344 13.859375 9.261719 2.320313 5.601562 1.035156 12.054687-3.253906 16.34375l-122 122c-2.882813 2.886719-6.722657 4.394531-10.609375 4.394531zm0 0" fill="#ffe31f"/><g fill="#facd00"><path d="m404.605469 385.605469c4.289062-4.289063 5.574219-10.742188 3.253906-16.347657-2.324219-5.605468-7.792969-9.257812-13.859375-9.257812h-31.972656l24.453125-36.679688c3.070312-4.605468 3.355469-10.523437.746093-15.398437-2.613281-4.875-7.695312-7.921875-13.226562-7.921875h-70c-5.269531 0-10.152344 2.765625-12.863281 7.28125l-36.136719 60.230469v54.488281h16.703125l-14.414063 72.058594c-1.292968 6.480468 1.804688 13.046875 7.632813 16.167968 2.230469 1.195313 4.660156 1.773438 7.074219 1.773438 3.886718 0 7.726562-1.507812 10.609375-4.394531zm0 0"/><path d="m255 302.8125 9.207031-9.207031c4.289063-4.289063 5.574219-10.742188 3.253907-16.347657-2.144532-5.167968-6.964844-8.671874-12.460938-9.1875zm0 0"/></g></svg>